<svg t="1722955894234" class="icon" viewBox="0 0 1024 1024" version="1.1" xmlns="http://www.w3.org/2000/svg" p-id="5019" width="200" height="200"><path d="M1004 1020H20c-8.8 0-16-7.2-16-16v-142.4c0-8.8 7.2-16 16-16h984c8.8 0 16 7.2 16 16v142.4c0 8.8-7.2 16-16 16z m-968-32h952v-110.4H36v110.4z" fill="#1296db" p-id="5020"></path><path d="M860 877.6h-696c-8.8 0-16-7.2-16-16V506.4c0-200.8 163.2-364 364-364s364 163.2 364 364v356c0 8.8-7.2 15.2-16 15.2z m-680-32h664V506.4c0-183.2-148.8-332-332-332S180 323.2 180 506.4v339.2z" fill="#1296db" p-id="5021"></path><path d="M796 805.6c-4.8 0-8-3.2-8-8V506.4c0-152-124-276-276-276-4.8 0-8-3.2-8-8s3.2-8 8-8c160.8 0 292 131.2 292 292v292c0 4-4 7.2-8 7.2zM89.6 530.4H20c-8.8 0-16-7.2-16-16s7.2-16 16-16h69.6c8.8 0 16 7.2 16 16s-7.2 16-16 16zM1004 530.4h-69.6c-8.8 0-16-7.2-16-16s7.2-16 16-16h69.6c8.8 0 16 7.2 16 16s-7.2 16-16 16zM512 105.6c-8.8 0-16-7.2-16-16V20c0-8.8 7.2-16 16-16s16 7.2 16 16v69.6c0 8.8-7.2 16-16 16zM212.8 230.4c-4 0-8-1.6-11.2-4.8L152.8 176c-6.4-6.4-6.4-16 0-22.4 6.4-6.4 16-6.4 22.4 0l48.8 49.6c6.4 6.4 6.4 16 0 22.4-2.4 3.2-7.2 4.8-11.2 4.8zM811.2 230.4c-4 0-8-1.6-11.2-4.8-6.4-6.4-6.4-16 0-22.4l48.8-49.6c6.4-6.4 16-6.4 22.4 0 6.4 6.4 6.4 16 0 22.4l-48.8 49.6c-3.2 3.2-7.2 4.8-11.2 4.8zM117.6 376.8c-1.6 0-4 0-5.6-0.8l-64.8-25.6c-8-3.2-12-12.8-8.8-20.8 3.2-8 12.8-12 20.8-8.8l64.8 25.6c8 3.2 12 12.8 8.8 20.8-2.4 5.6-8.8 9.6-15.2 9.6zM664.8 134.4c-1.6 0-4 0-5.6-0.8-8-3.2-12-12.8-8.8-20.8L675.2 48c3.2-8 12.8-12 20.8-8.8 8 3.2 12 12.8 8.8 20.8l-24.8 64c-2.4 6.4-8.8 10.4-15.2 10.4zM341.6 141.6c-6.4 0-12-3.2-14.4-9.6l-28-64c-3.2-8 0-17.6 8-20.8 8-3.2 17.6 0 20.8 8l28 64c3.2 8 0 17.6-8 20.8-2.4 1.6-4 1.6-6.4 1.6zM899.2 359.2c-6.4 0-12-3.2-14.4-9.6-3.2-8 0-17.6 8-20.8l63.2-28c8-3.2 17.6 0 20.8 8 3.2 8 0 17.6-8 20.8l-63.2 28c-2.4 1.6-4.8 1.6-6.4 1.6z" fill="#1296db" p-id="5022"></path></svg>